HIERARCHY
ROOT Hips
{
	OFFSET 0.000000 0.000000 0.000000 
	CHANNELS 6 Xposition Yposition Zposition Yrotation Zrotation Xrotation 
	JOINT Lumbar
	{
		OFFSET 0.000000 0.000000 0.000000 
		CHANNELS 3 Zrotation Xrotation Yrotation
		JOINT Neck
		{
			OFFSET 0.000000 0.445665 0.000000 
			CHANNELS 3 Zrotation Xrotation Yrotation
			End Site
			{
				OFFSET 0.000000 0.227535 0.000000 
			}
		}
		JOINT RightShoulder
		{
			OFFSET 0.019635 0.377685 0.194865 
			CHANNELS 3 Zrotation Xrotation Yrotation
			JOINT RightElbow
			{
				OFFSET 0.000000 -0.243375 0.000000 
				CHANNELS 2 Zrotation Yrotation
				JOINT RightWrist
				{
					OFFSET 0.000000 -0.264825 0.000000 
					CHANNELS 2 Zrotation Xrotation
					End Site
					{
						OFFSET 0.006600 -0.176220 0.000990 
					}
				}
			}
		}
		JOINT LeftShoulder
		{
			OFFSET 0.019635 0.377685 -0.194865 
			CHANNELS 3 Zrotation Xrotation Yrotation
			JOINT LeftElbow
			{
				OFFSET 0.000000 -0.243375 0.000000 
				CHANNELS 2 Zrotation Yrotation
				JOINT LeftWrist
				{
					OFFSET 0.000000 -0.264825 0.000000 
					CHANNELS 2 Zrotation Xrotation
					End Site
					{
						OFFSET 0.006600 -0.176220 -0.000990 
					}
				}
			}
		}
	}
	JOINT RightHip
	{
		OFFSET 0.052140 -0.069960 0.075570 
		CHANNELS 3 Zrotation Xrotation Yrotation
		JOINT RightKnee
		{
			OFFSET 0.000000 -0.402270 0.000000 
			CHANNELS 1 Zrotation
			JOINT RightAnkle
			{
				OFFSET 0.000000 -0.404085 0.000000 
				CHANNELS 3 Zrotation Xrotation Yrotation
				End Site
				{
					OFFSET 0.204105 -0.089430 0.008415 
				}
			}
		}
	}
	JOINT LeftHip
	{
		OFFSET 0.052140 -0.069960 -0.075570 
		CHANNELS 3 Zrotation Xrotation Yrotation
		JOINT LeftKnee
		{
			OFFSET 0.000000 -0.402270 0.000000 
			CHANNELS 1 Zrotation
			JOINT LeftAnkle
			{
				OFFSET 0.000000 -0.404085 0.000000 
				CHANNELS 3 Zrotation Xrotation Yrotation
				End Site
				{
					OFFSET 0.204105 -0.089430 -0.008415 
				}
			}
		}
	}
}
MOTION
Frames: 28
Frame Time: 0.02
-1.55392 0.85981 0.33627 540.00712 0 -4.00601 -53.40814 2.61855 -6.14888 -58.08034 -12.87454 -1.43867 46.53095 -22.00685 25.16162 51.24407 127.34392 -19.88987 -12.76285 57.65914 34.23488 -4.47584 52.81501 -96.21035 -33.76021 4.81655 31.24265 3.16798 -5.95558 -47.83332 3.64953 -4.86183 -11.53553 34.17577 19.23007 14.92242 -48.97184 -0.12509 2.25781 2.37397
-1.54512 0.84911 0.34293 539.25837 0 -3.8479 -54.06218 2.23489 -7.41645 -57.9626 -13.78965 -1.17393 46.33338 -21.78397 25.83722 51.70161 126.86445 -20.5551 -12.46783 58.32317 35.26778 -4.12093 53.63647 -96.36789 -33.90677 4.82175 33.05613 2.92367 -5.36924 -50.04147 4.21639 -5.03396 -11.31052 35.29317 19.65688 15.57618 -50.8811 0.84141 2.26446 2.05705
-1.53649 0.83781 0.34945 538.56141 0 -3.62943 -54.55794 1.78014 -7.12605 -58.09096 -13.31305 -1.72112 46.55908 -21.33153 26.67384 51.79661 126.39101 -21.60069 -12.1019 59.46773 36.39789 -3.86224 54.40387 -96.72899 -34.08612 4.85247 34.90337 2.66206 -4.77584 -52.29383 4.79822 -5.21501 -11.10841 36.63587 20.00099 16.38845 -53.10845 1.71389 2.28939 2.23408
-1.52783 0.82674 0.356 537.84547 0 -3.43778 -55.09864 1.36269 -7.62387 -58.11021 -13.54961 -1.87707 46.60778 -20.95661 27.42231 52.03238 125.91367 -22.49645 -11.76655 60.3915 37.49626 -3.55394 55.20427 -96.97171 -34.25243 4.869 36.73518 2.4107 -4.18756 -54.52513 5.36427 -5.387 -10.89274 37.88146 20.37716 17.10668 -55.19354 2.62051 2.31392 2.18447
-1.51897 0.8158 0.36272 537.11 0 -3.24923 -55.75722 0.92192 -7.80983 -58.11287 -13.46618 -2.11698 46.59173 -20.68504 28.24326 52.36684 125.44273 -23.30246 -11.43631 61.32583 38.55756 -3.27474 55.97825 -97.3219 -34.40803 4.89652 38.57188 2.1511 -3.58864 -56.76766 5.96709 -5.57956 -10.68967 39.10708 20.77854 17.93312 -57.28002 3.57134 2.30225 2.10235
-1.51057 0.80446 0.36903 536.4292 0 -3.04043 -56.1285 0.51478 -8.26501 -58.21122 -13.7096 -2.37811 46.81364 -20.1496 28.94622 52.40905 124.96144 -24.3789 -11.08051 62.35496 39.70989 -2.95847 56.78846 -97.49902 -34.59332 4.90735 40.40372 1.90398 -3.01251 -58.993 6.49726 -5.7318 -10.46661 40.42644 21.10663 18.56604 -59.43261 4.40505 2.37169 2.22065
-1.50337 0.79212 0.3743 535.86786 0 -2.78137 -55.77731 0.20467 -9.84669 -58.5048 -15.2112 -2.50716 47.55945 -18.91401 29.30521 51.74961 124.42509 -26.15682 -10.65694 63.494 41.1311 -2.48839 57.74107 -97.12777 -34.87113 4.86405 42.22498 1.69405 -2.48489 -61.17808 6.82353 -5.768 -10.17624 41.95537 21.25763 18.6236 -61.71731 4.93309 2.65652 2.77887
-1.49662 0.77941 0.37913 535.36335 0 -2.50563 -55.13599 -0.06642 -11.74962 -58.88865 -17.08446 -2.63017 48.53671 -17.4263 29.53518 50.80433 123.88298 -28.18342 -10.21313 64.71799 42.63129 -1.9824 58.72512 -96.57995 -35.17496 4.80351 44.03707 1.49737 -1.98368 -63.33949 7.07604 -5.76373 -9.8662 43.56936 21.33646 18.47876 -64.05075 5.34566 3.02302 3.52606
-1.48968 0.76689 0.38412 534.84459 0 -2.24312 -54.60673 -0.34668 -13.49961 -59.23723 -18.77459 -2.75149 49.4251 -16.07413 29.80885 49.98187 123.3584 -30.06566 -9.78787 65.92473 44.06648 -1.50954 59.67545 -96.1254 -35.45518 4.75184 45.84635 1.29522 -1.48101 -65.50001 7.36259 -5.77984 -9.56939 45.14055 21.44501 18.42626 -66.34327 5.81416 3.35574 4.18843
-1.4827 0.75424 0.38929 534.27759 0 -1.95416 -54.15691 -0.66599 -15.22232 -59.56907 -20.47553 -2.91723 50.2533 -14.62823 30.1501 49.18381 122.76806 -32.09766 -9.31964 67.05711 45.62781 -0.96717 60.70826 -95.61959 -35.78576 4.69618 47.68867 1.08978 -0.93327 -67.71423 7.64845 -5.78829 -9.25517 46.73784 21.56427 18.37959 -68.72823 6.26758 3.67678 4.86422
-1.47591 0.7418 0.39398 533.8254 0 -1.71777 -53.47302 -0.89328 -17.10176 -59.95521 -22.26158 -2.98153 51.26398 -13.31703 30.31935 48.26271 122.31709 -33.86668 -8.93831 68.35958 46.94428 -0.56232 61.57463 -95.18019 -36.01778 4.64505 49.4566 0.89506 -0.48616 -69.80679 7.91678 -5.80243 -8.97236 48.29714 21.64442 18.26867 -70.92561 6.72288 4.03906 5.54886
-1.46947 0.72982 0.39753 533.66332 0 -1.62493 -52.22898 -0.87971 -19.30888 -60.45696 -24.18325 -2.73672 52.65069 -12.4746 30.02993 47.15494 122.21826 -34.89005 -8.79127 70.09453 47.55804 -0.52392 61.99703 -94.93168 -35.96688 4.60513 51.04557 0.72213 -0.30733 -71.59885 8.16521 -5.84667 -8.78014 49.7364 21.64066 18.04503 -72.61151 7.23965 4.51437 6.22612
-1.46323 0.7181 0.4006 533.617 0 -1.5868 -50.75721 -0.77394 -21.67275 -61.01051 -26.18401 -2.39102 54.22154 -11.77267 29.57335 45.92222 122.26551 -35.63016 -8.73467 71.99632 47.9217 -0.62891 62.24646 -94.76279 -35.81696 4.5714 52.55487 0.56026 -0.22956 -73.26314 8.39636 -5.89712 -8.62037 51.13185 21.59917 17.76022 -74.10157 7.75725 5.02453 6.90052
-1.45693 0.70637 0.40383 533.52596 0 -1.52781 -49.38068 -0.70743 -23.99332 -61.54812 -28.16397 -2.10833 55.75601 -10.98246 29.20318 44.6906 122.26909 -36.47135 -8.64409 73.83267 48.40633 -0.68206 62.56038 -94.5785 -35.71457 4.53817 54.08514 0.39667 -0.1075 -74.96673 8.62865 -5.94175 -8.44615 52.54306 21.57125 17.4924 -75.66802 8.25691 5.5063 7.56464
-1.45049 0.69414 0.40729 533.40362 0 -1.45182 -48.02928 -0.65025 -26.21684 -62.06013 -30.10142 -1.75627 57.11007 -10.27969 28.78674 43.67278 122.17941 -37.43967 -8.52297 75.63687 48.8702 -0.67724 62.93611 -94.29613 -35.60075 4.48984 55.6812 0.2204 0.02091 -76.75029 8.88729 -5.99773 -8.26962 53.97672 21.55615 17.26254 -77.29094 8.82776 6.04464 8.28529
-1.44441 0.68305 0.41016 533.37326 0 -1.42378 -46.5746 -0.55287 -28.66235 -62.63255 -32.12983 -1.52122 58.86683 -9.43993 28.42585 42.19767 122.31517 -38.07079 -8.48686 77.53595 49.30776 -0.82832 63.14019 -94.2446 -35.48897 4.4753 57.11924 0.07194 0.112 -78.33533 9.08721 -6.03196 -8.10637 55.34978 21.50598 16.94261 -78.74739 9.25064 6.47145 8.88403
-1.43913 0.67494 0.41155 533.56772 0 -1.52064 -44.89731 -0.36134 -31.79779 -63.39286 -34.4909 -1.66453 61.80773 -8.11483 28.28349 39.37186 123.06857 -37.85345 -8.66651 79.74611 49.8132 -1.37076 62.92444 -94.76433 -35.38743 4.54701 58.15879 0.0068 0.12833 -79.41942 9.13552 -6.00556 -7.96736 56.58486 21.37193 16.38225 -79.80544 9.2774 6.58908 9.15352
-1.43423 0.66801 0.41236 533.85052 0 -1.66287 -43.12409 -0.13365 -35.1281 -64.20552 -36.92056 -1.92454 65.12516 -6.66068 28.199 36.11334 124.03795 -37.30263 -8.92812 82.02916 50.28698 -2.06682 62.53961 -95.52208 -35.29374 4.65355 59.03861 -0.03251 0.10998 -80.30516 9.12464 -5.95704 -7.84138 57.75646 21.20379 15.73587 -80.69986 9.15345 6.59155 9.29825
-1.42925 0.66062 0.41342 534.09327 0 -1.78052 -41.39178 0.07345 -38.29234 -64.97144 -39.25056 -2.10943 68.19123 -5.31608 28.07266 33.13273 124.88835 -36.89459 -9.15021 84.21888 50.72104 -2.69444 62.22414 -96.20381 -35.21063 4.74796 59.97965 -0.08974 0.10541 -81.27149 9.13696 -5.9183 -7.71269 58.94454 21.04891 15.13389 -81.66025 9.09081 6.64142 9.49459
-1.4239 0.65288 0.41453 534.34008 0 -1.91667 -39.66278 0.30084 -41.79013 -65.8356 -41.87135 -2.37898 71.59977 -3.76623 28.00571 29.80631 125.83223 -36.51437 -9.38496 86.66693 51.3691 -3.31819 61.9339 -96.75714 -35.06905 4.82729 60.96621 -0.12046 0.10601 -82.27412 9.16379 -5.88113 -7.57221 60.18366 20.90119 14.5061 -82.6496 9.05849 6.71309 9.71206
-1.41941 0.64616 0.41541 534.59741 0 -2.02447 -37.90696 0.49397 -44.63655 -66.50753 -43.90337 -2.50756 74.38562 -2.60526 27.83144 27.09676 126.63023 -36.00005 -9.61171 88.59418 51.57436 -3.98846 61.55364 -97.62754 -35.04654 4.94578 61.8207 -0.20042 0.08847 -83.15514 9.14718 -5.8351 -7.45817 61.30159 20.73209 13.9139 -83.54193 8.92718 6.71191 9.85637
-1.41718 0.64195 0.41586 534.86585 0 -2.04191 -36.10371 0.57785 -45.64178 -66.62985 -44.27651 -2.16383 75.327 -2.60338 27.34386 26.21821 126.97649 -35.20281 -9.79521 89.04613 50.50273 -4.71652 60.96244 -99.3663 -35.40231 5.16769 62.35263 -0.42263 0.03363 -83.75383 9.01995 -5.77225 -7.42066 62.1034 20.50277 13.42914 -84.21013 8.55931 6.53419 9.82497
-1.41579 0.63873 0.4161 535.14058 0 -2.02925 -34.27772 0.62669 -45.98288 -66.5577 -44.05715 -1.68438 75.63404 -2.98703 26.74782 25.97233 127.1669 -34.28246 -9.96755 88.97448 48.9988 -5.49176 60.28766 -101.40632 -35.869 5.42709 62.75687 -0.69528 -0.03859 -84.23646 8.85207 -5.70085 -7.40794 62.78514 20.25504 12.98564 -84.78644 8.09666 6.28754 9.72522
-1.41403 0.63506 0.41643 535.40944 0 -2.03064 -32.46077 0.69479 -46.62392 -66.57832 -44.11953 -1.30392 76.25195 -3.15772 26.20394 25.42276 127.4255 -33.41605 -10.14528 89.15403 47.73535 -6.2661 59.65491 -103.27413 -36.25111 5.66672 63.21815 -0.94501 -0.10509 -84.77 8.70635 -5.63181 -7.37927 63.52001 20.02224 12.53142 -85.40357 7.67793 6.07472 9.6592
-1.41227 0.63142 0.41677 535.69412 0 -2.03174 -30.64427 0.74978 -47.28012 -66.5825 -44.13251 -0.77197 76.78722 -3.48163 25.64921 24.92484 127.70335 -32.54618 -10.3247 89.27914 46.2871 -6.95833 59.00058 -105.29807 -36.77578 5.91893 63.67852 -1.1941 -0.16352 -85.30536 8.54315 -5.56826 -7.37068 64.25848 19.76069 12.04049 -86.01957 7.25188 5.84764 9.57664
-1.41069 0.62794 0.41704 535.94621 0 -2.02612 -28.82462 0.82369 -47.74409 -66.57373 -44.10575 -0.51931 77.33972 -3.58182 25.09139 24.47701 127.90065 -31.65883 -10.49673 89.39376 45.11866 -7.83183 58.37171 -107.0668 -37.03219 6.15359 64.11189 -1.45646 -0.24259 -85.81058 8.40725 -5.49173 -7.32617 64.96207 19.55491 11.63668 -86.61735 6.81864 5.63499 9.51509
-1.40942 0.62461 0.4172 536.10598 0 -2.00549 -26.98688 0.95464 -47.84161 -66.57915 -44.12223 -1.09058 78.08667 -2.95301 24.54558 24.00128 127.9181 -30.7552 -10.65165 89.59429 44.85222 -9.18414 57.84974 -108.04212 -36.49977 6.32893 64.50826 -1.74605 -0.37278 -86.27348 8.35895 -5.37997 -7.17496 65.59746 19.50984 11.46576 -87.19609 6.4038 5.48262 9.51936
-1.4083 0.62142 0.41731 536.23243 0 -1.97981 -25.15042 1.10636 -47.76745 -66.57752 -44.11727 -1.94213 78.87226 -2.09064 24.00194 23.55919 127.85837 -29.84053 -10.79893 89.80438 44.87686 -10.71806 57.35363 -108.75158 -35.6973 6.48549 64.88135 -2.04654 -0.52334 -86.70846 8.33932 -5.25589 -6.98718 66.20314 19.52142 11.3808 -87.75901 5.98161 5.34679 9.54967
